<svg xmlns="http://www.w3.org/2000/svg" viewBox="0 0 160 160">
  <rect width="160" height="160" rx="28" fill="#fff1d8"/>
  <rect x="36" y="34" width="58" height="86" rx="10" fill="#5fb5ff"/>
  <rect x="46" y="46" width="58" height="86" rx="10" fill="#ffd35a"/>
  <rect x="56" y="58" width="58" height="86" rx="10" fill="#ff7aa8"/>
  <path d="M112 29l14 8-47 82-19 10 3-21 49-79z" fill="#1f4f75"/>
  <path d="M126 37l10 6-47 82-10-6 47-82z" fill="#f0b84d"/>
  <path d="M60 129l19-10 10 6-19 10-10-6z" fill="#163852"/>
  <path d="M45 52h25M45 64h18M65 78h24M65 90h18" stroke="#ffffff" stroke-width="5" stroke-linecap="round" opacity=".8"/>
</svg>
