<svg xmlns="http://www.w3.org/2000/svg" viewBox="0 0 720 420">
  <defs>
    <linearGradient id="phoneBlue" x1="0" x2="1" y1="0" y2="1">
      <stop offset="0" stop-color="#b7dbff"/>
      <stop offset="0.55" stop-color="#2d78c4"/>
      <stop offset="1" stop-color="#071a33"/>
    </linearGradient>
    <linearGradient id="dark" x1="0" x2="1" y1="0" y2="1">
      <stop offset="0" stop-color="#263d59"/>
      <stop offset="1" stop-color="#050b14"/>
    </linearGradient>
    <linearGradient id="watch" x1="0" x2="1" y1="0" y2="1">
      <stop offset="0" stop-color="#ffcf38"/>
      <stop offset="1" stop-color="#ff7a1a"/>
    </linearGradient>
    <filter id="shadow" x="-30%" y="-30%" width="160%" height="160%">
      <feDropShadow dx="0" dy="22" stdDeviation="18" flood-color="#001326" flood-opacity="0.45"/>
    </filter>
  </defs>
  <ellipse cx="370" cy="370" rx="275" ry="30" fill="#001426" opacity=".38"/>
  <g filter="url(#shadow)">
    <rect x="118" y="92" width="154" height="246" rx="30" fill="#9fc9f5" transform="rotate(-7 195 215)"/>
    <rect x="135" y="112" width="54" height="90" rx="20" fill="#10233b" transform="rotate(-7 162 157)"/>
    <circle cx="151" cy="135" r="12" fill="#6ab6ff"/>
    <circle cx="171" cy="164" r="12" fill="#101b2b"/>
    <circle cx="151" cy="188" r="10" fill="#101b2b"/>
    <path d="M202 219c13 10 11 35-6 42-16-8-24-27-12-41 5-6 11-6 18-1z" fill="#fff" opacity=".9"/>
  </g>
  <g filter="url(#shadow)">
    <rect x="280" y="34" width="154" height="286" rx="32" fill="#08182e"/>
    <rect x="295" y="51" width="124" height="252" rx="24" fill="url(#phoneBlue)"/>
    <path d="M328 51h58c-4 18-14 25-29 25s-25-7-29-25z" fill="#08182e"/>
    <path d="M297 247c35-42 78-77 124-105v161H297z" fill="#08182e" opacity=".22"/>
    <path d="M310 236c36-16 63-18 94-57" stroke="#fff" stroke-width="8" opacity=".22" fill="none"/>
  </g>
  <g filter="url(#shadow)">
    <path d="M452 164c12-60 54-96 106-96 58 0 102 42 112 104" fill="none" stroke="#071421" stroke-width="28" stroke-linecap="round"/>
    <path d="M452 164c12-60 54-96 106-96 58 0 102 42 112 104" fill="none" stroke="#304358" stroke-width="13" stroke-linecap="round"/>
    <rect x="417" y="170" width="72" height="132" rx="30" fill="url(#dark)" transform="rotate(9 453 236)"/>
    <rect x="610" y="170" width="72" height="132" rx="30" fill="url(#dark)" transform="rotate(-9 646 236)"/>
    <ellipse cx="456" cy="238" rx="28" ry="45" fill="#15263c" transform="rotate(9 456 238)"/>
    <ellipse cx="646" cy="238" rx="28" ry="45" fill="#15263c" transform="rotate(-9 646 238)"/>
  </g>
  <g filter="url(#shadow)">
    <rect x="244" y="205" width="92" height="128" rx="31" fill="url(#watch)" transform="rotate(-9 290 269)"/>
    <rect x="260" y="220" width="62" height="96" rx="22" fill="#081422" transform="rotate(-9 291 268)"/>
    <path d="M271 194h38c7 0 13 6 13 13v13h-64v-13c0-7 6-13 13-13z" fill="#071421" transform="rotate(-9 290 207)"/>
    <path d="M267 318h64v17c0 8-6 14-14 14h-36c-8 0-14-6-14-14z" fill="#071421" transform="rotate(-9 299 333)"/>
    <circle cx="279" cy="263" r="5" fill="#65e7ff"/>
    <circle cx="298" cy="253" r="5" fill="#ff4ca3"/>
    <circle cx="306" cy="277" r="5" fill="#ffe34d"/>
  </g>
</svg>
