<svg xmlns="http://www.w3.org/2000/svg" viewBox="0 0 760 430">
  <defs>
    <linearGradient id="backPhone" x1="0" x2="1" y1="0" y2="1">
      <stop offset="0" stop-color="#d8ebff"/>
      <stop offset=".42" stop-color="#80b6ef"/>
      <stop offset="1" stop-color="#2b67a1"/>
    </linearGradient>
    <linearGradient id="screen" x1=".08" x2=".92" y1=".04" y2=".96">
      <stop offset="0" stop-color="#c5ebff"/>
      <stop offset=".36" stop-color="#4fa4ff"/>
      <stop offset=".64" stop-color="#1454a2"/>
      <stop offset="1" stop-color="#071329"/>
    </linearGradient>
    <linearGradient id="metal" x1="0" x2="1">
      <stop offset="0" stop-color="#050b12"/>
      <stop offset=".45" stop-color="#2c4159"/>
      <stop offset="1" stop-color="#050a10"/>
    </linearGradient>
    <linearGradient id="earCup" x1="0" x2="1" y1="0" y2="1">
      <stop offset="0" stop-color="#36495f"/>
      <stop offset=".55" stop-color="#111b28"/>
      <stop offset="1" stop-color="#03070c"/>
    </linearGradient>
    <linearGradient id="orange" x1="0" x2="1" y1="0" y2="1">
      <stop offset="0" stop-color="#ffd749"/>
      <stop offset=".5" stop-color="#ff9a1f"/>
      <stop offset="1" stop-color="#ff6b0d"/>
    </linearGradient>
    <radialGradient id="blueGlow" cx=".54" cy=".42" r=".6">
      <stop offset="0" stop-color="#7fc4ff" stop-opacity=".7"/>
      <stop offset=".55" stop-color="#1f75c8" stop-opacity=".25"/>
      <stop offset="1" stop-color="#051629" stop-opacity="0"/>
    </radialGradient>
    <filter id="softShadow" x="-30%" y="-30%" width="160%" height="170%">
      <feDropShadow dx="0" dy="26" stdDeviation="20" flood-color="#001323" flood-opacity=".48"/>
    </filter>
    <filter id="smallShadow" x="-35%" y="-35%" width="170%" height="175%">
      <feDropShadow dx="0" dy="14" stdDeviation="11" flood-color="#001323" flood-opacity=".45"/>
    </filter>
    <clipPath id="screenClip">
      <rect x="318" y="44" width="128" height="270" rx="27"/>
    </clipPath>
  </defs>

  <rect width="760" height="430" fill="none"/>
  <ellipse cx="410" cy="374" rx="308" ry="35" fill="#001426" opacity=".38"/>
  <ellipse cx="430" cy="210" rx="290" ry="210" fill="url(#blueGlow)"/>

  <g filter="url(#softShadow)">
    <rect x="115" y="92" width="162" height="248" rx="32" fill="#10253d" opacity=".24" transform="rotate(-6 196 216)"/>
    <rect x="108" y="82" width="160" height="250" rx="31" fill="url(#backPhone)" transform="rotate(-6 188 207)"/>
    <rect x="124" y="101" width="55" height="88" rx="19" fill="#0c2138" transform="rotate(-6 151 145)"/>
    <circle cx="139" cy="123" r="12" fill="#111f32"/>
    <circle cx="159" cy="151" r="12" fill="#111f32"/>
    <circle cx="141" cy="177" r="10" fill="#111f32"/>
    <circle cx="139" cy="123" r="6" fill="#5aa8f7"/>
    <circle cx="159" cy="151" r="5" fill="#96caff"/>
    <circle cx="141" cy="177" r="4" fill="#96caff"/>
    <path d="M205 207c13 9 12 32-4 40-15-7-23-26-11-39 5-6 10-6 15-1z" fill="#fff" opacity=".92"/>
    <path d="M119 91c20-8 95-10 126 14" stroke="#fff" stroke-width="6" opacity=".22" fill="none" transform="rotate(-6 182 100)"/>
  </g>

  <g filter="url(#softShadow)">
    <rect x="300" y="28" width="166" height="306" rx="36" fill="#071427"/>
    <rect x="312" y="39" width="142" height="284" rx="31" fill="#0a1a31"/>
    <rect x="318" y="44" width="128" height="270" rx="27" fill="url(#screen)"/>
    <g clip-path="url(#screenClip)">
      <path d="M315 276c40-46 83-85 133-118v167H315z" fill="#061227" opacity=".34"/>
      <path d="M326 256c44-24 74-32 112-86" stroke="#fff" stroke-width="9" opacity=".24" fill="none"/>
      <path d="M318 61c38 22 76 17 128-6" stroke="#fff" stroke-width="10" opacity=".18" fill="none"/>
    </g>
    <path d="M350 44h64c-3 21-15 30-32 30s-29-9-32-30z" fill="#071427"/>
    <rect x="360" y="52" width="44" height="6" rx="3" fill="#122943"/>
  </g>

  <g filter="url(#smallShadow)">
    <path d="M499 166c14-62 58-102 113-102 59 0 105 43 117 107" fill="none" stroke="#04080e" stroke-width="33" stroke-linecap="round"/>
    <path d="M500 166c14-62 58-102 113-102 59 0 105 43 117 107" fill="none" stroke="url(#metal)" stroke-width="17" stroke-linecap="round"/>
    <path d="M528 137c21-33 50-51 84-51 38 0 70 21 90 58" fill="none" stroke="#62768c" stroke-width="4" opacity=".45" stroke-linecap="round"/>
    <rect x="464" y="170" width="76" height="134" rx="32" fill="url(#earCup)" transform="rotate(8 502 237)"/>
    <rect x="655" y="170" width="76" height="134" rx="32" fill="url(#earCup)" transform="rotate(-8 693 237)"/>
    <ellipse cx="502" cy="238" rx="26" ry="46" fill="#223449" transform="rotate(8 502 238)"/>
    <ellipse cx="693" cy="238" rx="26" ry="46" fill="#223449" transform="rotate(-8 693 238)"/>
    <ellipse cx="502" cy="238" rx="15" ry="30" fill="#08111d" transform="rotate(8 502 238)"/>
    <ellipse cx="693" cy="238" rx="15" ry="30" fill="#08111d" transform="rotate(-8 693 238)"/>
    <path d="M476 188c19 10 38 11 58 0" stroke="#61778e" stroke-width="5" opacity=".32" fill="none"/>
    <path d="M662 188c19 10 38 11 58 0" stroke="#61778e" stroke-width="5" opacity=".32" fill="none"/>
  </g>

  <g filter="url(#smallShadow)">
    <path d="M279 190h46c10 0 18 8 18 18v21h-82v-21c0-10 8-18 18-18z" fill="#07101e" transform="rotate(-8 302 209)"/>
    <path d="M269 324h82v22c0 10-8 18-18 18h-46c-10 0-18-8-18-18z" fill="#07101e" transform="rotate(-8 310 344)"/>
    <rect x="253" y="211" width="105" height="133" rx="34" fill="url(#orange)" transform="rotate(-8 305 278)"/>
    <rect x="269" y="225" width="73" height="105" rx="25" fill="#07111f" transform="rotate(-8 305 277)"/>
    <rect x="276" y="234" width="59" height="86" rx="20" fill="#08172a" transform="rotate(-8 305 277)"/>
    <circle cx="290" cy="274" r="5" fill="#70e6ff"/>
    <circle cx="306" cy="260" r="5" fill="#ff57a6"/>
    <circle cx="321" cy="280" r="5" fill="#ffe45b"/>
    <path d="M288 294c13 8 26 8 39 0" stroke="#7f91a6" stroke-width="3" stroke-linecap="round" fill="none"/>
    <path d="M280 242c20 10 38 7 54-6" stroke="#fff" stroke-width="5" opacity=".18" fill="none"/>
  </g>
</svg>
